# xmcd
#
# Track frame offsets:
#	150
#	14470
#	26277
#	39293
#	53552
#	64517
#	76609
#	89735
#	101011
#	114479
#	125636
#	138739
#	149852
#	162519
#	173082
#	182127
#
# Disc length: 2568 seconds
#
# Revision: 0
# Processed by: cddbd v1.5.2PL0 Copyright (c) Steve Scherf et al.
# Submitted via: audiograbber 1.83.01
#
DISCID=da0a0610
DTITLE=VA - Hits 'n' More - The Ultimate 60s Collection CD 1 
DYEAR=1900
DGENRE=Oldies
TTITLE0=Clark, Petula - Downtown
TTITLE1=Dave, Dee, Dozy, Beaky, Mick and Tich - Okay
TTITLE2=Herman's Hermits - No Milk Today
TTITLE3=Love Affair - Everlasting Love
TTITLE4=Garrick, David - Dear Mrs. Applebee
TTITLE5=Troggs, The - Love Is All Around
TTITLE6=Turtles, The - Happy Together
TTITLE7=Paul and Paula - Hey Paula
TTITLE8=Pitney, Gene - Twenty Four Hours From Tulsa
TTITLE9=Jam and Dean - Surf City
TTITLE10=Rose, Tommy - Dizzy
TTITLE11=Checker, Chubby - Limbo Rock
TTITLE12=Dion - The Wanderer
TTITLE13=Shannon, Del - Runaway
TTITLE14=Dee, Joe and The Starliters - The Peppermint Twist
TTITLE15=Miller, Ray - I Have A Dog
EXTD=
EXTT0=
EXTT1=
EXTT2=
EXTT3=
EXTT4=
EXTT5=
EXTT6=
EXTT7=
EXTT8=
EXTT9=
EXTT10=
EXTT11=
EXTT12=
EXTT13=
EXTT14=
EXTT15=
PLAYORDER=
